# 3ds Max Wavefront OBJ Exporter v0.97b - (c)2007 guruware
# File Created: 29.03.2015 07:06:14

mtllib skiflip.mtl

#
# object Box001
#

v  -51.0122 0.0000 -0.0768
v  -31.3930 0.0000 -19.5618
v  31.9184 0.0000 -19.5618
v  -31.3930 0.0000 19.6284
v  31.9184 0.0000 19.6284
v  32.0774 11.4121 19.7027
v  32.0774 11.4121 10.0030
v  19.9898 11.4121 10.0027
v  -0.0133 11.4121 10.0020
v  -41.1751 11.4121 10.0008
v  -31.4741 11.4121 19.7027
v  36.8353 5.7392 21.9279
v  -33.9036 5.7392 21.9279
v  36.8353 5.7392 -21.8600
v  -33.9036 5.7392 -21.8600
v  -55.8246 5.7392 0.0048
v  32.0774 11.4121 -19.6360
v  32.0774 11.4121 -9.9853
v  -31.4741 11.4121 -19.6360
v  -51.1678 11.4121 0.0071
v  -41.1486 11.4121 -9.9863
v  19.9896 11.4121 -9.9855
v  -0.0022 11.4121 -9.9858
v  32.0774 16.9053 -9.9853
v  2.3334 13.1942 -9.9855
v  2.3335 13.1942 10.0027
v  32.0774 16.9053 10.0030
v  -9.0035 24.1029 -9.9863
v  -19.0226 24.1029 0.0071
v  -9.0300 24.1029 10.0008
v  -0.0133 24.1029 10.0020
v  -0.0022 24.1029 -9.9858
v  -3.3578 22.7983 10.0015
v  -2.0373 24.0177 10.0015
v  -2.0603 21.3933 10.0017
v  -0.7399 22.6126 10.0017
v  -2.0603 21.3933 -9.9859
v  -0.7399 22.6127 -9.9859
v  -3.3578 22.7983 -9.9860
v  -2.0373 24.0177 -9.9860
v  -2.0603 21.3933 17.3207
v  -3.3578 22.7983 17.3207
v  -0.7399 22.6126 17.3207
v  -2.0373 24.0177 17.3207
v  -2.0603 21.3933 -17.2861
v  -3.3578 22.7983 -17.2861
v  -2.0373 24.0177 -17.2861
v  -0.7399 22.6126 -17.2861
# 48 vertices

vn 0.0000 -1.0000 -0.0000
vn 0.0000 1.0000 -0.0000
vn 0.0000 -0.3719 0.9283
vn 0.7594 -0.6506 -0.0000
vn 0.0000 -0.3717 -0.9283
vn -0.7659 -0.6429 -0.0087
vn -0.7668 -0.6419 0.0017
vn -0.6069 -0.5087 -0.6107
vn -0.6063 -0.5097 -0.6105
vn -0.6081 -0.5108 0.6077
vn -0.6083 -0.5098 0.6083
vn 0.0000 0.3651 0.9309
vn 0.7662 0.6426 -0.0000
vn 0.0000 0.3650 -0.9310
vn -0.6109 0.5017 -0.6125
vn -0.6117 0.5018 0.6116
vn -0.1238 0.9923 0.0000
vn 0.5793 0.8151 -0.0000
vn 0.5790 0.8153 0.0002
vn -0.1238 0.9923 -0.0000
vn 0.6283 0.7780 0.0003
vn 0.6287 0.7776 0.0001
vn -0.3447 0.8731 0.3447
vn -0.0000 -0.0003 1.0000
vn -0.0000 -0.0000 1.0000
vn 1.0000 0.0000 -0.0000
vn 0.0000 0.0000 -1.0000
vn 0.0001 0.0000 -1.0000
vn -0.3446 0.8729 -0.3455
vn -0.0003 0.0000 1.0000
vn 0.0000 0.0001 -1.0000
vn -0.0001 -0.0001 1.0000
vn -0.0001 0.0000 1.0000
vn -0.0000 0.0001 1.0000
vn -0.0002 0.0000 1.0000
vn -0.0002 -0.0001 1.0000
vn 0.0001 -0.0000 -1.0000
vn 0.0000 -0.0000 -1.0000
vn 0.0001 0.0003 -1.0000
vn -0.7347 -0.6784 -0.0000
vn 0.7347 0.6784 0.0000
vn 0.0000 0.0000 1.0000
vn 0.6784 -0.7347 0.0000
vn -0.6784 0.7347 0.0000
vn -0.6784 0.7347 -0.0000
vn 0.6784 -0.7347 -0.0000
vn -0.7347 -0.6784 0.0000
vn 0.7347 0.6784 -0.0000
# 48 vertex normals

vt 0.9523 0.0743 0.0000
vt 0.9523 0.1479 0.0000
vt 0.0000 0.1479 0.0000
vt 0.9523 0.0000 0.0000
vt 0.0000 0.0000 0.0000
vt 0.5930 0.1900 0.0000
vt 0.5930 0.3165 0.0000
vt 0.5084 0.3165 0.0000
vt 0.3683 0.3166 0.0000
vt 0.0799 0.3166 0.0000
vt 0.0799 0.1900 0.0000
vt 0.0021 0.0021 0.0000
vt 0.9948 0.0021 0.0000
vt 0.9948 0.1819 0.0000
vt 0.0021 0.1819 0.0000
vt 0.0522 0.0056 0.0000
vt 0.9375 0.0042 0.0000
vt 0.9896 0.1845 0.0000
vt 0.0004 0.1861 0.0000
vt 0.0017 0.0000 0.0000
vt 1.0000 0.0000 0.0000
vt 1.0000 0.1818 0.0000
vt 0.0017 0.1818 0.0000
vt 0.9953 0.0013 0.0000
vt 0.9990 0.1858 0.0000
vt 0.0007 0.1858 0.0000
vt 0.1056 0.0013 0.0000
vt 0.8931 0.0031 0.0000
vt 0.9969 0.1834 0.0000
vt 0.0072 0.1834 0.0000
vt 0.0035 0.0031 0.0000
vt 0.9964 0.1826 0.0000
vt 0.0038 0.1826 0.0000
vt 0.0542 0.0048 0.0000
vt 0.2730 0.0048 0.0000
vt 0.7261 0.0048 0.0000
vt 0.9459 0.0048 0.0000
vt 0.9964 0.1832 0.0000
vt 0.0032 0.1832 0.0000
vt 0.0373 0.0030 0.0000
vt 0.9296 0.0030 0.0000
vt 0.9974 0.1852 0.0000
vt 0.0059 0.1852 0.0000
vt 0.0058 0.0048 0.0000
vt 0.4590 0.0048 0.0000
vt 0.8966 0.0048 0.0000
vt 0.9975 0.1851 0.0000
vt 0.0083 0.1851 0.0000
vt 0.1087 0.0042 0.0000
vt 0.5465 0.0042 0.0000
vt 0.9974 0.0042 0.0000
vt 0.5928 0.1959 0.0000
vt 0.5928 0.3190 0.0000
vt 0.0910 0.3190 0.0000
vt 0.5100 0.1959 0.0000
vt 0.0910 0.1959 0.0000
vt 0.3730 0.1959 0.0000
vt 0.4659 0.9974 0.0000
vt -0.0000 0.9995 0.0000
vt 0.0020 0.4868 0.0000
vt 0.4672 0.4865 0.0000
vt 0.6528 0.7501 0.0000
vt 0.6528 0.6269 0.0000
vt 0.6528 0.5037 0.0000
vt 0.9254 0.5037 0.0000
vt 0.9254 0.7501 0.0000
vt 1.0000 1.0000 0.0000
vt 0.4919 0.9995 0.0000
vt 0.4873 0.4937 0.0000
vt 0.9965 0.4875 0.0000
vt 0.0115 0.4666 0.0000
vt 0.2452 0.3454 0.0000
vt 0.9971 0.3454 0.0000
vt 0.7634 0.4666 0.0000
vt 0.4019 0.9597 0.0000
vt 0.0200 0.9597 0.0000
vt 0.3571 0.5307 0.0000
vt 0.2010 0.9686 0.0000
vt 0.0313 0.9686 0.0000
vt 0.0313 0.5116 0.0000
vt 0.4488 0.8204 0.0000
vt 0.4404 0.9760 0.0000
vt 0.0200 0.9760 0.0000
vt 0.0200 0.5088 0.0000
vt 0.4404 0.5088 0.0000
vt 0.3923 0.9630 0.0000
vt 0.2410 0.9630 0.0000
vt 0.0200 0.8193 0.0000
vt 0.3923 0.5201 0.0000
vt 0.6380 0.5287 0.0000
vt 0.6441 0.7722 0.0000
vt 0.9110 0.5287 0.0000
vt 0.9451 0.6643 0.0000
vt 0.9453 0.6267 0.0000
vt 0.6406 0.6267 0.0000
vt 0.6411 0.6642 0.0000
vt 0.9002 0.5335 0.0000
vt 0.6332 0.7770 0.0000
vt 0.6271 0.5335 0.0000
vt 0.0595 0.5427 0.0000
vt 0.3584 0.9617 0.0000
vt 0.0200 0.9617 0.0000
vt 0.9278 0.5369 0.0000
vt 0.8741 0.5369 0.0000
vt 0.9676 0.7241 0.0000
vt 0.5355 0.7242 0.0000
vt 0.9414 0.5369 0.0000
vt 0.9629 0.5369 0.0000
vt 0.5308 0.5369 0.0000
vt 0.9553 0.5369 0.0000
vt 0.8575 0.5473 0.0000
vt 0.9185 0.5473 0.0000
vt 0.9571 0.7275 0.0000
vt 0.9526 0.5473 0.0000
vt 0.5368 0.5473 0.0000
vt 0.5413 0.7275 0.0000
vt 0.7976 0.5473 0.0000
vt 0.8586 0.5473 0.0000
vt 0.6430 0.3268 0.0000
vt 0.6430 0.1909 0.0000
vt 0.9977 0.1909 0.0000
vt 0.9977 0.3268 0.0000
vt 0.9978 0.3270 0.0000
vt 0.6431 0.3270 0.0000
vt 0.6431 0.1908 0.0000
vt 0.9978 0.1908 0.0000
vt 0.9622 0.2623 0.0000
vt 0.9926 0.2623 0.0000
vt 0.9926 0.2927 0.0000
vt 0.9622 0.2927 0.0000
vt 0.6429 0.3269 0.0000
vt 0.6429 0.1908 0.0000
vt 0.9978 0.3269 0.0000
vt 0.9904 0.2587 0.0000
vt 0.9638 0.2587 0.0000
vt 0.9638 0.2942 0.0000
vt 0.9904 0.2942 0.0000
vt 0.6427 0.1908 0.0000
vt 0.9987 0.1898 0.0000
vt 0.9976 0.3269 0.0000
vt 0.6416 0.3276 0.0000
vt 0.9979 0.1908 0.0000
vt 0.9979 0.3270 0.0000
vt 0.6429 0.3270 0.0000
vt 0.6433 0.3269 0.0000
vt 0.6433 0.1910 0.0000
vt 0.9976 0.1910 0.0000
vt 0.9975 0.1908 0.0000
vt 0.9975 0.3266 0.0000
vt 0.6427 0.3266 0.0000
vt 0.6479 0.1927 0.0000
vt 0.9955 0.1927 0.0000
vt 0.9955 0.3223 0.0000
vt 0.6479 0.3223 0.0000
# 154 texture coords

g Box001
usemtl Material__25
s 2
f 1/1/1 2/2/1 3/3/1 4/4/1 
f 4/4/1 3/3/1 5/5/1 
s 4
f 6/6/2 7/7/2 8/8/2 9/9/2 
f 6/6/2 9/9/2 10/10/2 11/11/2 
s 8
f 4/12/3 5/13/3 12/14/3 13/15/3 
s 16
f 5/16/4 3/17/4 14/18/4 12/19/4 
s 32
f 3/20/5 2/21/5 15/22/5 14/23/5 
s 64
f 1/24/6 16/25/7 15/26/8 2/27/9 
f 4/28/10 13/29/11 16/30/7 1/31/6 
s off
f 13/15/12 12/14/12 6/13/12 11/12/12 
f 12/32/13 14/33/13 17/34/13 18/35/13 
f 12/32/13 18/35/13 7/36/13 6/37/13 
f 14/38/14 15/39/14 19/40/14 17/41/14 
f 15/42/15 16/43/15 20/44/15 21/45/15 
f 15/42/15 21/45/15 19/46/15 
f 16/47/16 13/48/16 11/49/16 10/50/16 
f 16/47/16 10/50/16 20/51/16 
s 4
f 18/52/2 17/53/2 19/54/2 22/55/2 
f 19/54/2 21/56/2 23/57/2 22/55/2 
f 24/58/17 25/59/18 26/60/19 27/61/20 
f 28/62/2 29/63/2 30/64/2 31/65/21 
f 32/66/22 28/62/2 31/65/21 
f 32/67/22 31/68/21 26/69/19 25/70/18 
s off
f 20/71/23 10/72/23 30/73/23 29/74/23 
f 9/75/24 8/76/24 26/77/24 
f 8/78/25 7/79/25 27/80/25 26/81/25 
f 7/82/26 18/83/26 24/84/26 27/85/26 
f 18/86/27 22/87/27 25/88/27 24/89/27 
f 23/90/28 32/91/28 25/92/28 
f 21/93/29 20/94/29 29/95/29 28/96/29 
f 26/97/30 31/98/30 9/99/30 
f 25/100/31 22/101/31 23/102/31 
f 33/103/32 34/104/32 31/105/32 30/106/32 
f 35/107/33 33/103/33 30/106/33 9/108/33 
f 30/106/34 10/109/34 9/108/34 
f 36/110/35 35/107/35 9/108/35 31/105/35 
f 36/110/36 31/105/36 34/104/36 
f 37/111/37 38/112/37 32/113/37 23/114/37 
f 37/111/38 23/114/38 21/115/38 28/116/38 
f 39/117/37 37/111/37 28/116/37 40/118/37 
f 40/118/39 28/116/39 32/113/39 38/112/39 
s 2
f 33/119/40 35/120/40 41/121/40 42/122/40 
s 4
f 43/123/41 36/124/41 34/125/41 44/126/41 
s 8
f 42/127/42 41/128/42 43/129/42 44/130/42 
s 16
f 35/131/43 36/132/43 43/126/43 41/133/43 
s 32
f 45/134/27 46/135/27 47/136/27 48/137/27 
s 64
f 33/138/44 42/139/45 44/140/44 34/141/44 
s 16
f 45/142/43 48/143/43 38/144/43 37/132/46 
s 2
f 37/145/47 39/146/47 46/147/47 45/140/47 
s 64
f 47/148/45 46/149/44 39/150/45 40/138/45 
s 4
f 38/151/48 48/152/48 47/153/48 40/154/48 
# 41 polygons - 10 triangles

